<?xml version="1.0" encoding="UTF-8" standalone="no"?>
<svg
   xmlns:dc="http://purl.org/dc/elements/1.1/"
   xmlns:cc="http://creativecommons.org/ns#"
   xmlns:rdf="http://www.w3.org/1999/02/22-rdf-syntax-ns#"
   xmlns:svg="http://www.w3.org/2000/svg"
   xmlns="http://www.w3.org/2000/svg"
   xmlns:sodipodi="http://sodipodi.sourceforge.net/DTD/sodipodi-0.dtd"
   xmlns:inkscape="http://www.inkscape.org/namespaces/inkscape"
   id="Layer_1"
   viewBox="0 0 401.46 429.78001"
   version="1.1"
   sodipodi:docname="code.svg"
   inkscape:version="0.92.4 (5da689c313, 2019-01-14)"
   width="401.45999"
   height="429.78">
  <metadata
     id="metadata193">
    <rdf:RDF>
      <cc:Work
         rdf:about="">
        <dc:format>image/svg+xml</dc:format>
        <dc:type
           rdf:resource="http://purl.org/dc/dcmitype/StillImage" />
        <dc:title></dc:title>
      </cc:Work>
    </rdf:RDF>
  </metadata>
  <sodipodi:namedview
     pagecolor="#ffffff"
     bordercolor="#666666"
     borderopacity="1"
     objecttolerance="10"
     gridtolerance="10"
     guidetolerance="10"
     inkscape:pageopacity="0"
     inkscape:pageshadow="2"
     inkscape:window-width="1920"
     inkscape:window-height="991"
     id="namedview191"
     showgrid="false"
     inkscape:zoom="0.5419323"
     inkscape:cx="272.161"
     inkscape:cy="177.70215"
     inkscape:window-x="-9"
     inkscape:window-y="-9"
     inkscape:window-maximized="1"
     inkscape:current-layer="Layer_1"
     fit-margin-top="0"
     fit-margin-left="0"
     fit-margin-right="0"
     fit-margin-bottom="0" />
  <defs
     id="defs4">
    <style
       id="style2">.cls-1{letter-spacing:-.02em;}.cls-2,.cls-3{fill:#fff;}.cls-2,.cls-4,.cls-5,.cls-6,.cls-7{stroke-miterlimit:10;}.cls-2,.cls-5,.cls-7{stroke-width:5px;}.cls-2,.cls-6,.cls-7{stroke:#022341;}.cls-8{letter-spacing:-.04em;}.cls-9{letter-spacing:0em;}.cls-10{letter-spacing:-.02em;}.cls-11{letter-spacing:-.02em;}.cls-12{letter-spacing:-.04em;}.cls-13{letter-spacing:-.02em;}.cls-14{letter-spacing:-.03em;}.cls-15{letter-spacing:-.02em;}.cls-16{letter-spacing:-.02em;}.cls-17{letter-spacing:-.02em;}.cls-18{fill:#043b4d;}.cls-19{fill:#3ee680;}.cls-20{fill:#18725f;}.cls-21,.cls-5{fill:#6cf1c7;}.cls-22{fill:#39e180;}.cls-23{letter-spacing:-.01em;}.cls-24{letter-spacing:-.01em;}.cls-25{letter-spacing:-.03em;}.cls-4{stroke:#fff;stroke-width:4.63px;}.cls-4,.cls-5,.cls-6,.cls-7{stroke-linecap:round;}.cls-4,.cls-6,.cls-7{fill:none;}.cls-26{letter-spacing:-.01em;}.cls-27{letter-spacing:-.02em;}.cls-28{letter-spacing:-.02em;}.cls-29{letter-spacing:-.01em;}.cls-30{letter-spacing:-.03em;}.cls-5{stroke:#18725f;}.cls-31{letter-spacing:-.01em;}.cls-32{letter-spacing:-.03em;}.cls-33{letter-spacing:-.02em;}.cls-6{stroke-width:4.82px;}.cls-34{letter-spacing:-.03em;}.cls-35{letter-spacing:-.03em;}.cls-36{letter-spacing:-.02em;}.cls-37{letter-spacing:-.01em;}.cls-38{letter-spacing:-.03em;}.cls-39{font-size:46.77px;}.cls-39,.cls-40{fill:#080444;font-family:Mont-Bold, Mont;}.cls-41{letter-spacing:-.02em;}.cls-42{letter-spacing:-.02em;}.cls-43{letter-spacing:-.02em;}.cls-44{letter-spacing:-.02em;}.cls-45{letter-spacing:-.02em;}.cls-46{letter-spacing:-.02em;}.cls-47{letter-spacing:-.02em;}.cls-48{letter-spacing:-.02em;}.cls-49{letter-spacing:-.02em;}.cls-40{font-size:68px;}.cls-50{letter-spacing:-.02em;}.cls-51{letter-spacing:-.02em;}.cls-52{letter-spacing:-.02em;}.cls-53{letter-spacing:-.03em;}.cls-54{letter-spacing:0em;}.cls-55{letter-spacing:-.01em;}</style>
  </defs>
  <path
     style="fill:#043b4d"
     inkscape:connector-curvature="0"
     class="cls-18"
     d="m 0,0.01 v 379.44 c 0,27.76 22.58,50.33 50.33,50.33 27.75,0 50.33,-22.58 50.33,-50.33 V 89.06 c 0,-4.28 3.47,-7.75 7.74,-7.75 H 274.89 V 0 H 0 Z"
     id="path8" />
  <line
     style="fill:#6cf1c7;stroke:#18725f;stroke-width:5px;stroke-linecap:round;stroke-miterlimit:10"
     class="cls-5"
     x1="36.970001"
     y1="97.370018"
     x2="242.03"
     y2="97.370018"
     id="line12" />
  <line
     style="fill:#6cf1c7;stroke:#18725f;stroke-width:5px;stroke-linecap:round;stroke-miterlimit:10"
     class="cls-5"
     x1="36.970001"
     y1="136.31001"
     x2="242.03"
     y2="136.31001"
     id="line14" />
  <line
     style="fill:#6cf1c7;stroke:#18725f;stroke-width:5px;stroke-linecap:round;stroke-miterlimit:10"
     class="cls-5"
     x1="36.970001"
     y1="292.07004"
     x2="242.03"
     y2="292.07004"
     id="line16" />
  <line
     style="fill:#6cf1c7;stroke:#18725f;stroke-width:5px;stroke-linecap:round;stroke-miterlimit:10"
     class="cls-5"
     x1="36.970001"
     y1="331.00998"
     x2="242.03"
     y2="331.00998"
     id="line18" />
  <line
     style="fill:#6cf1c7;stroke:#18725f;stroke-width:5px;stroke-linecap:round;stroke-miterlimit:10"
     class="cls-5"
     x1="36.970001"
     y1="175.25002"
     x2="242.03"
     y2="175.25002"
     id="line142" />
  <line
     style="fill:#6cf1c7;stroke:#18725f;stroke-width:5px;stroke-linecap:round;stroke-miterlimit:10"
     class="cls-5"
     x1="36.970001"
     y1="214.19002"
     x2="242.03"
     y2="214.19002"
     id="line144" />
  <line
     style="fill:#6cf1c7;stroke:#18725f;stroke-width:5px;stroke-linecap:round;stroke-miterlimit:10"
     class="cls-5"
     x1="36.970001"
     y1="253.13002"
     x2="242.03"
     y2="253.13002"
     id="line146" />
  <path
     style="fill:#39e180"
     inkscape:connector-curvature="0"
     class="cls-22"
     d="m 107.71,81.77 c -3.78,0 -7.14,2.77 -7.48,6.53 -0.02,0.23 -0.03,0.46 -0.03,0.7 v 290.39 c 0,27.74 -22.55,50.3 -50.28,50.33 v 0.05 h 292.67 c 32.51,0 58.87,-26.36 58.87,-58.87 V 89.34 c 0,-4.18 -3.39,-7.57 -7.57,-7.57 z"
     id="path148" />
  <g
     id="g158"
     transform="translate(-186.19027,-13.26586)">
    <path
       style="fill:#18725f"
       inkscape:connector-curvature="0"
       class="cls-20"
       d="m 775.83,864.42 h 3.16 c 7.7,0 13.95,6.25 13.95,13.95 v 150.57 H 761.88 V 878.37 c 0,-7.7 6.25,-13.95 13.95,-13.95 z"
       transform="rotate(140.74,777.3884,946.70557)"
       id="path150" />
    <path
       style="fill:#043b4d"
       inkscape:connector-curvature="0"
       class="cls-18"
       d="m 812.15,891.11 h 6.43 c 10.3,0 18.66,8.36 18.66,18.66 v 187.22 H 793.49 V 909.77 c 0,-10.3 8.36,-18.66 18.66,-18.66 z"
       transform="rotate(140.75,815.40028,994.00102)"
       id="path152" />
    <rect
       style="fill:#6cf1c7"
       class="cls-21"
       x="725.72998"
       y="909.76001"
       width="47.810001"
       height="4.71"
       rx="2.3599999"
       ry="2.3599999"
       transform="rotate(140.75,749.66478,912.06808)"
       id="rect154" />
    <circle
       style="fill:#ffffff;stroke:#022341;stroke-width:5px;stroke-miterlimit:10"
       class="cls-2"
       cx="650.40997"
       cy="788.20001"
       r="121.61"
       id="circle156" />
  </g>
  <path
     style="fill:#39e180"
     inkscape:connector-curvature="0"
     class="cls-22"
     d="m 628.23973,1074.9641 c -9.29,-12.33 4.96,-13.6 4.96,-13.6 0,0 -27.93,5.96 -32.4,-12.43 -3.27,-13.47 36.01,-17.62 36.01,-17.62 0,0 -49.02,21.11 -55.13,-6.66 -3.39,-15.43 39.13,-19.75 39.13,-19.75 0,0 -66.24,18.54 -72.3,-6.42996 -5.31,-21.86 27.28,-31.42 82.93,-47.89 -0.96,-5.45 -61.46,-55.87 -51.71,-71.87 2.51,-4.12 13.38,-1.95 24.77,2.13 37.11,13.29 34.89,14.44 81.6,31.63 48.98,18.03 219.17,-49.25 219.17,-49.25 0,0 -28.34,79.31 -53.77,113.69 -27.71,37.47996 -92.03,90.53996 -139.32,99.96996 -43.49,8.67 -74.64,10.41 -83.93,-1.92 z"
     id="path160" />
  <line
     style="fill:none;stroke:#022341;stroke-width:4.82000017px;stroke-linecap:round;stroke-miterlimit:10"
     class="cls-6"
     x1="588.46973"
     y1="1011.9042"
     x2="642.44977"
     y2="1001.6841"
     id="line162" />
  <line
     style="fill:none;stroke:#022341;stroke-width:4.82000017px;stroke-linecap:round;stroke-miterlimit:10"
     class="cls-6"
     x1="602.76978"
     y1="1039.8341"
     x2="646.61975"
     y2="1034.1342"
     id="line164" />
  <path
     style="fill:none;stroke:#022341;stroke-width:4.82000017px;stroke-linecap:round;stroke-miterlimit:10"
     inkscape:connector-curvature="0"
     class="cls-6"
     d="m 587.02973,964.33414 c 0,0 28.56,-9.36 43.3,-13.31 14.74,-3.94 34.11,-6.84 34.11,-6.84"
     id="path166" />
  <line
     style="fill:none;stroke:#022341;stroke-width:4.82000017px;stroke-linecap:round;stroke-miterlimit:10"
     class="cls-6"
     x1="621.89978"
     y1="1062.4541"
     x2="644.53973"
     y2="1061.2942"
     id="line168" />
  <text
     xml:space="preserve"
     style="font-style:normal;font-variant:normal;font-weight:bold;font-stretch:normal;font-size:96.75131226px;line-height:75.58696747px;font-family:monospace;-inkscape-font-specification:'monospace Bold';font-variant-ligatures:normal;font-variant-caps:normal;font-variant-numeric:normal;font-feature-settings:normal;text-align:start;letter-spacing:0px;word-spacing:0px;writing-mode:lr-tb;text-anchor:start;fill:#043b4d;fill-opacity:1;stroke:none;stroke-width:3.02347851"
     x="164.99905"
     y="249.38918"
     id="text1010"><tspan
       sodipodi:role="line"
       id="tspan1008"
       x="164.99905"
       y="249.38918"
       style="font-style:normal;font-variant:normal;font-weight:bold;font-stretch:normal;font-family:monospace;-inkscape-font-specification:'monospace Bold';fill:#043b4d;fill-opacity:1;stroke-width:3.02347851">&lt;--</tspan><tspan
       sodipodi:role="line"
       x="164.99905"
       y="324.97614"
       style="font-style:normal;font-variant:normal;font-weight:bold;font-stretch:normal;font-family:monospace;-inkscape-font-specification:'monospace Bold';fill:#043b4d;fill-opacity:1;stroke-width:3.02347851"
       id="tspan1012">===</tspan></text>
</svg>
