<?xml version="1.0" encoding="UTF-8" standalone="no"?>
<svg
   xmlns:dc="http://purl.org/dc/elements/1.1/"
   xmlns:cc="http://creativecommons.org/ns#"
   xmlns:rdf="http://www.w3.org/1999/02/22-rdf-syntax-ns#"
   xmlns:svg="http://www.w3.org/2000/svg"
   xmlns="http://www.w3.org/2000/svg"
   xmlns:sodipodi="http://sodipodi.sourceforge.net/DTD/sodipodi-0.dtd"
   xmlns:inkscape="http://www.inkscape.org/namespaces/inkscape"
   id="Layer_1"
   viewBox="0 0 759.38668 311.84434"
   version="1.1"
   sodipodi:docname="sc.svg"
   inkscape:version="0.92.4 (5da689c313, 2019-01-14)"
   width="759.38666"
   height="311.84433">
  <metadata
     id="metadata193">
    <rdf:RDF>
      <cc:Work
         rdf:about="">
        <dc:format>image/svg+xml</dc:format>
        <dc:type
           rdf:resource="http://purl.org/dc/dcmitype/StillImage" />
        <dc:title></dc:title>
      </cc:Work>
    </rdf:RDF>
  </metadata>
  <sodipodi:namedview
     pagecolor="#ffffff"
     bordercolor="#666666"
     borderopacity="1"
     objecttolerance="10"
     gridtolerance="10"
     guidetolerance="10"
     inkscape:pageopacity="0"
     inkscape:pageshadow="2"
     inkscape:window-width="1920"
     inkscape:window-height="991"
     id="namedview191"
     showgrid="false"
     inkscape:zoom="1.532816"
     inkscape:cx="282.5677"
     inkscape:cy="171.97935"
     inkscape:window-x="-9"
     inkscape:window-y="-9"
     inkscape:window-maximized="1"
     inkscape:current-layer="Layer_1"
     fit-margin-top="0"
     fit-margin-left="-1.9"
     fit-margin-right="0"
     fit-margin-bottom="0" />
  <defs
     id="defs4">
    <style
       id="style2">.cls-1{letter-spacing:-.02em;}.cls-2,.cls-3{fill:#fff;}.cls-2,.cls-4,.cls-5,.cls-6,.cls-7{stroke-miterlimit:10;}.cls-2,.cls-5,.cls-7{stroke-width:5px;}.cls-2,.cls-6,.cls-7{stroke:#022341;}.cls-8{letter-spacing:-.04em;}.cls-9{letter-spacing:0em;}.cls-10{letter-spacing:-.02em;}.cls-11{letter-spacing:-.02em;}.cls-12{letter-spacing:-.04em;}.cls-13{letter-spacing:-.02em;}.cls-14{letter-spacing:-.03em;}.cls-15{letter-spacing:-.02em;}.cls-16{letter-spacing:-.02em;}.cls-17{letter-spacing:-.02em;}.cls-18{fill:#043b4d;}.cls-19{fill:#3ee680;}.cls-20{fill:#18725f;}.cls-21,.cls-5{fill:#6cf1c7;}.cls-22{fill:#39e180;}.cls-23{letter-spacing:-.01em;}.cls-24{letter-spacing:-.01em;}.cls-25{letter-spacing:-.03em;}.cls-4{stroke:#fff;stroke-width:4.63px;}.cls-4,.cls-5,.cls-6,.cls-7{stroke-linecap:round;}.cls-4,.cls-6,.cls-7{fill:none;}.cls-26{letter-spacing:-.01em;}.cls-27{letter-spacing:-.02em;}.cls-28{letter-spacing:-.02em;}.cls-29{letter-spacing:-.01em;}.cls-30{letter-spacing:-.03em;}.cls-5{stroke:#18725f;}.cls-31{letter-spacing:-.01em;}.cls-32{letter-spacing:-.03em;}.cls-33{letter-spacing:-.02em;}.cls-6{stroke-width:4.82px;}.cls-34{letter-spacing:-.03em;}.cls-35{letter-spacing:-.03em;}.cls-36{letter-spacing:-.02em;}.cls-37{letter-spacing:-.01em;}.cls-38{letter-spacing:-.03em;}.cls-39{font-size:46.77px;}.cls-39,.cls-40{fill:#080444;font-family:Mont-Bold, Mont;}.cls-41{letter-spacing:-.02em;}.cls-42{letter-spacing:-.02em;}.cls-43{letter-spacing:-.02em;}.cls-44{letter-spacing:-.02em;}.cls-45{letter-spacing:-.02em;}.cls-46{letter-spacing:-.02em;}.cls-47{letter-spacing:-.02em;}.cls-48{letter-spacing:-.02em;}.cls-49{letter-spacing:-.02em;}.cls-40{font-size:68px;}.cls-50{letter-spacing:-.02em;}.cls-51{letter-spacing:-.02em;}.cls-52{letter-spacing:-.02em;}.cls-53{letter-spacing:-.03em;}.cls-54{letter-spacing:0em;}.cls-55{letter-spacing:-.01em;}</style>
  </defs>
  <rect
     style="opacity:0.19200003;vector-effect:none;fill:#ffffff;fill-opacity:1;stroke:none;stroke-width:3.64724398;stroke-linecap:round;stroke-linejoin:round;stroke-miterlimit:4;stroke-dasharray:none;stroke-dashoffset:0;stroke-opacity:1;paint-order:markers stroke fill"
     id="rect873"
     width="759.38666"
     height="311.84433"
     x="0"
     y="0" />
  <g
     id="g4792"
     transform="matrix(0.57283669,0,0,0.57283669,-383.5351,-198.01587)">
    <path
       style="fill:#d2d2d2;stroke-width:0.26458335"
       d="m 779.79413,675.04364 c -0.7053,-0.74133 -37.48692,-66.32261 -37.58426,-67.01238 l -0.0902,-0.63908 38.0311,-0.067 38.0311,-0.067 0.61358,-0.99129 c 0.33747,-0.5452 8.86865,-15.67599 18.95818,-33.62396 10.08954,-17.94797 18.51546,-32.69824 18.72428,-32.77837 0.20882,-0.0801 0.53697,0.0194 0.72923,0.22122 0.61816,0.64882 36.93424,65.35836 37.32323,66.50411 0.33785,0.9951 0.32665,1.23423 -0.11284,2.40879 -0.65224,1.74313 -36.70462,65.72539 -37.28164,66.16381 -0.36531,0.27757 -7.75924,0.34176 -38.68393,0.33585 -35.54978,-0.007 -38.26215,-0.0387 -38.65784,-0.45461 z M 761.03738,540.97716 c -10.11369,-17.9785 -18.59543,-33.24872 -18.8483,-33.93382 -0.44003,-1.19219 -0.43875,-1.30251 0.03,-2.57131 0.65461,-1.77194 36.66741,-65.71785 37.26686,-66.17267 0.38793,-0.29435 7.07915,-0.35744 38.64637,-0.3644 36.00817,-0.008 38.20425,0.0179 38.65306,0.45461 0.81539,0.79341 37.60203,66.50879 37.60203,67.17197 v 0.62751 h -37.97663 -37.97663 l -0.5864,0.98413 c -0.32251,0.54127 -8.86641,15.69198 -18.98645,33.66823 -13.80528,24.52235 -18.52933,32.70156 -18.91771,32.75402 -0.43179,0.0583 -3.56741,-5.35147 -18.90619,-32.61827 z"
       id="path4776"
       inkscape:connector-curvature="0" />
    <path
       style="fill:#9d9d9d;stroke-width:0.26458335"
       d="m 761.3414,641.90794 c -11.06917,-19.70002 -18.81608,-33.76011 -18.72792,-33.98985 0.13165,-0.34308 4.86055,-0.40016 38.01251,-0.45886 l 37.86215,-0.0671 18.95029,-33.66823 c 10.42266,-18.51753 19.08863,-33.66823 19.25771,-33.66823 0.23359,0 32.95632,57.70997 37.41215,65.98026 0.83159,1.54347 0.83426,1.56085 0.38682,2.51354 -0.55909,1.19041 -37.11033,66.18567 -37.4774,66.64214 -0.2106,0.2619 -8.22943,0.32902 -38.53199,0.32252 l -38.26604,-0.008 z m 0.14849,-100.72774 c -9.96532,-17.71716 -18.49618,-32.91242 -18.95748,-33.76724 -0.83344,-1.54445 -0.83588,-1.56025 -0.3871,-2.51354 0.57079,-1.21247 36.18354,-64.63924 37.04722,-65.98157 l 0.63896,-0.99308 38.2941,0.067 38.29409,0.067 18.84212,33.46979 c 10.36316,18.40839 18.81498,33.64839 18.7818,33.86667 -0.0532,0.34994 -4.54629,0.41252 -37.9945,0.52917 l -37.93418,0.13229 -18.941,33.66823 c -10.41756,18.51753 -19.08147,33.66823 -19.25314,33.66823 -0.17167,0 -8.46558,-14.49586 -18.43089,-32.21302 z"
       id="path4774"
       inkscape:connector-curvature="0" />
    <path
       style="fill:#1b806a;fill-opacity:1;stroke-width:0.26458335"
       d="m 780.33173,675.45624 c -0.0111,-0.0364 -0.0583,-0.24474 -0.10472,-0.46302 -0.0465,-0.21828 -8.4924,-15.33922 -18.76876,-33.60208 l -18.68431,-33.20521 37.69731,-0.13229 c 33.0473,-0.11597 37.74408,-0.18125 38.07647,-0.52917 0.20855,-0.21828 8.67646,-15.16062 18.81759,-33.20521 10.14113,-18.04458 18.61853,-33.08998 18.83867,-33.43421 0.33557,-0.52474 0.45562,-0.5675 0.74286,-0.26459 0.18844,0.19872 8.6485,15.12505 18.80014,33.16964 10.15165,18.04458 18.60859,33.04645 18.79322,33.3375 0.30097,0.47445 -1.63877,4.03732 -18.76013,34.45829 l -19.0958,33.92912 -38.16615,0.004 c -20.99138,0.002 -38.17526,-0.0261 -38.18639,-0.0625 z m -0.70361,-102.64712 c -0.15294,-0.18807 -8.51685,-14.98663 -18.58646,-32.88569 -10.06962,-17.89907 -18.52494,-32.90094 -18.78962,-33.3375 l -0.48123,-0.79375 18.77634,-33.3375 c 10.32699,-18.33563 18.8859,-33.6058 19.01979,-33.93371 l 0.24344,-0.5962 38.27944,0.067 c 33.78881,0.0592 38.28645,0.1136 38.3393,0.46392 0.0329,0.21828 8.466,15.33922 18.74016,33.60208 l 18.68028,33.20521 -37.68937,0.13229 c -33.03362,0.11595 -37.73758,0.18132 -38.07959,0.52917 -0.21462,0.21828 -8.78738,15.32929 -19.05058,33.58001 -10.2632,18.25072 -18.76464,33.28741 -18.89209,33.41486 -0.13257,0.13258 -0.3507,0.0854 -0.50981,-0.11022 z"
       id="path4772"
       inkscape:connector-curvature="0" />
    <path
       style="fill:#4e4e4e;stroke-width:0.26458335"
       d="m 780.50119,674.93989 c 0.37396,-1.17824 37.30155,-66.50714 37.88267,-67.01854 0.33072,-0.29105 9.03754,-15.53105 19.34849,-33.86667 10.31094,-18.33563 18.8418,-33.3375 18.95745,-33.3375 0.11566,0 8.52048,14.75859 18.67738,32.79688 10.15691,18.03829 18.62885,32.98579 18.82654,33.21667 0.66289,0.7742 0.72963,1.01371 0.3811,1.36772 -0.4769,0.48443 -37.75826,66.76851 -37.75826,67.132 0,0.21152 -10.53699,0.29194 -38.25013,0.29194 h -38.25012 z m -0.8432,-102.38351 c -0.1235,-0.19458 -8.51668,-15.08211 -18.65152,-33.08339 -10.13483,-18.00129 -18.61972,-32.92237 -18.85532,-33.15796 -0.51652,-0.51653 -0.51743,-0.5272 -0.0829,-0.96697 0.44748,-0.45284 37.75451,-66.81826 37.75451,-67.16145 0,-0.16916 13.35491,-0.26006 38.20753,-0.26006 h 38.20752 l -0.14977,0.57273 c -0.28577,1.09279 -36.92297,65.97486 -37.77442,66.89602 -0.47079,0.50932 -9.21737,15.80886 -19.43687,33.99896 -10.21949,18.19011 -18.67391,33.17259 -18.78758,33.29441 -0.11367,0.12182 -0.30773,0.0623 -0.43122,-0.13229 z"
       id="path4770"
       inkscape:connector-curvature="0" />
    <path
       style="fill:#18725f;fill-opacity:1;stroke-width:0.26458335"
       d="m 780.67658,675.05937 c 0.22365,-0.25466 8.70755,-15.22677 18.85312,-33.27136 10.14558,-18.04458 18.84716,-33.40364 19.33685,-34.13125 0.48969,-0.7276 9.1527,-16.00668 19.25113,-33.9535 10.09844,-17.94682 18.45765,-32.63298 18.57603,-32.63591 0.11839,-0.003 8.5832,14.85771 18.8107,33.02364 10.22749,18.16592 18.71967,33.07036 18.8715,33.12097 0.3929,0.13097 0.34168,0.86221 -0.0847,1.20939 -0.34739,0.28285 -37.21006,65.69428 -37.55391,66.63802 -0.15961,0.43805 -2.226,0.46302 -38.31802,0.46302 -36.3112,0 -38.12972,-0.0223 -37.74269,-0.46302 z m -1.31616,-103.30043 c -0.29122,-0.48359 -8.65435,-15.34536 -18.58474,-33.02614 -9.93039,-17.68078 -18.22019,-32.27906 -18.42178,-32.44062 -0.46623,-0.37368 -0.46821,-0.88823 -0.005,-1.26459 0.31301,-0.25424 35.95682,-63.43322 37.29676,-66.10885 l 0.49689,-0.99219 h 38.08027 38.08027 l -0.53246,0.7276 c -0.29286,0.40019 -8.79717,15.43183 -18.89846,33.40365 -10.10128,17.97182 -18.60776,32.98218 -18.90327,33.35634 -0.29551,0.37416 -8.89727,15.55463 -19.11502,33.73438 -10.21775,18.17974 -18.66466,33.15209 -18.77092,33.27188 -0.10626,0.11979 -0.43147,-0.17786 -0.72268,-0.66146 z"
       id="path4768"
       inkscape:connector-curvature="0" />
    <path
       style="fill:#18725f;fill-opacity:1;stroke-width:0.26458335"
       d="m 856.21291,674.92708 c -0.36522,-0.2744 -35.89293,-63.10315 -37.16704,-65.72783 -0.39101,-0.80548 -0.37675,-0.88493 0.35936,-2.00165 0.42159,-0.63958 8.98185,-15.7635 19.02278,-33.60871 16.62637,-29.54915 18.28501,-32.39399 18.57834,-31.86503 9.31302,16.79403 37.11941,65.64921 37.3381,65.60217 0.36272,-0.078 0.42082,0.64278 0.0622,0.77171 -0.30305,0.10894 -37.64877,66.37014 -37.66593,66.82934 -0.007,0.1819 -0.0293,0.33073 -0.05,0.33073 -0.0207,0 -0.23572,-0.14883 -0.47783,-0.33073 z M 779.65423,571.76499 c -0.12557,-0.19329 -8.51163,-15.05671 -18.6357,-33.02983 -10.12407,-17.97312 -18.54774,-32.64863 -18.71927,-32.61225 -0.41055,0.0871 -0.3992,-0.41346 0.0188,-0.83169 0.51403,-0.51423 37.64616,-66.64667 37.56545,-66.90417 -0.0393,-0.12553 0.13208,-0.1143 0.38093,0.025 0.35712,0.19985 35.6571,62.47589 37.33116,65.85942 0.40804,0.82471 0.39993,0.89544 -0.19473,1.69976 -0.34126,0.46158 -8.82732,15.43341 -18.8579,33.27074 -10.03059,17.83732 -18.33262,32.53116 -18.44896,32.65298 -0.11634,0.12182 -0.31427,0.0633 -0.43983,-0.12993 z"
       id="path4766"
       inkscape:connector-curvature="0" />
    <path
       style="fill:#0f5957;fill-opacity:1;stroke-width:0.26458335"
       d="m 856.14748,674.18714 c -2.37106,-3.83645 -37.07518,-66.06321 -36.98083,-66.30906 0.20689,-0.53916 75.03505,-0.52565 74.90941,0.0135 -0.14827,0.63633 -37.34601,66.57246 -37.55672,66.57246 -0.11039,0 -0.27773,-0.12462 -0.37186,-0.27692 z M 742.51655,505.68401 c 0,-0.51721 37.39362,-66.7141 37.63948,-66.63215 0.14393,0.048 8.62894,14.96511 18.85559,33.14919 13.55683,24.10552 18.52059,33.15155 18.32327,33.39269 -0.21417,0.26174 -8.04613,0.33073 -37.54448,0.33073 -22.17994,0 -37.27386,-0.0974 -37.27386,-0.24046 z"
       id="path4764"
       inkscape:connector-curvature="0" />
  </g>
  <path
     inkscape:connector-curvature="0"
     id="path4813"
     d="m 179.78734,254.50028 c -20.76556,-29.27046 -24.73116,-34.88443 -24.67877,-34.93684 0.0321,-0.0321 6.93195,4.00028 15.33283,8.96106 9.88167,5.83521 15.35768,8.99777 15.51049,8.95781 0.1787,-0.0467 15.25673,-8.90736 30.39643,-17.86245 0.42363,-0.25061 0.43278,-0.25088 0.29829,-0.009 -0.34184,0.6135 -30.64854,43.18393 -30.77303,43.22541 -0.0769,0.0256 -2.81567,-3.72531 -6.08624,-8.33541 z m -9.12172,-32.61707 c -8.52165,-5.03743 -15.55287,-9.21787 -15.62485,-9.28984 -0.0882,-0.0882 4.96826,-8.59467 15.52618,-26.11931 8.61135,-14.29365 15.70073,-26.00159 15.75424,-26.01767 0.10644,-0.0321 31.40977,51.88006 31.38703,52.05099 -0.0179,0.1365 -31.18586,18.54209 -31.39209,18.53797 -0.0859,-0.001 -7.12879,-4.12469 -15.65051,-9.16214 z"
     style="fill:#39e180;fill-opacity:1;stroke:#000000;stroke-width:1.5257771;stroke-miterlimit:4;stroke-dasharray:none" />
  <g
     id="g5017"
     transform="matrix(1.1276739,0,0,1.1276739,-819.91192,-516.84686)"
     style="opacity:0.66000001">
    <path
       inkscape:connector-curvature="0"
       id="path4885"
       d="m 892.65278,534.12456 c -0.3237,-0.5576 -5.9807,-10.36173 -15.4981,-26.85968 -2.9189,-5.05966 -7.5344,-13.05901 -10.2567,-17.77633 -2.7223,-4.71732 -5.0716,-8.80282 -5.2208,-9.07888 -0.1491,-0.27606 -2.5032,-4.36686 -5.2313,-9.09066 -2.7281,-4.72381 -5,-8.67631 -5.0488,-8.78334 -0.07,-0.15361 -0.064,-0.21007 0.027,-0.26797 0.068,-0.0433 4.3391,-0.0739 10.4047,-0.0746 8.4458,-9.1e-4 10.315,0.018 10.4352,0.10584 0.08,0.0589 2.4288,4.06015 5.2185,8.8917 2.7896,4.83154 5.1078,8.79608 5.1515,8.81007 0.044,0.014 2.3795,-3.96015 5.1907,-8.83144 3.6947,-6.40231 5.15,-8.85689 5.251,-8.85689 0.101,0 1.5573,2.45545 5.2532,8.85759 2.8123,4.87167 5.148,8.84621 5.1902,8.8323 0.042,-0.0139 2.3276,-3.9275 5.0784,-8.69689 2.7508,-4.76939 5.0892,-8.77105 5.1965,-8.89257 l 0.195,-0.22094 10.3134,0.001 c 5.8306,6.1e-4 10.3621,0.0321 10.4255,0.0722 0.064,0.0407 0.09,0.12842 0.061,0.20529 -0.028,0.0739 -2.2919,4.01486 -5.0301,8.75777 -2.7382,4.74292 -5.1026,8.85298 -5.2543,9.13347 -0.1518,0.2805 -2.5505,4.45087 -5.3306,9.26749 -2.7801,4.81663 -7.474,12.95146 -10.4309,18.07741 -13.8391,23.99055 -15.5393,26.91684 -15.6521,26.94002 -0.077,0.0158 -0.236,-0.17404 -0.4381,-0.52223 z"
       style="fill:#cdcece;stroke-width:0.08034404" />
    <path
       inkscape:connector-curvature="0"
       id="path4883"
       d="m 892.49568,533.68202 c -0.9283,-1.5958 -16.9811,-29.43671 -25.5391,-44.29367 -2.8255,-4.905 -5.1951,-9.04473 -5.2659,-9.19939 -0.071,-0.15466 -2.3918,-4.19988 -5.1576,-8.98938 -2.7659,-4.78949 -5.0096,-8.7394 -4.986,-8.77758 0.066,-0.10629 20.6295,-0.0896 20.736,0.0168 0.047,0.0475 2.3776,4.05966 5.1781,8.91602 2.8006,4.85636 5.1311,8.83072 5.1789,8.83192 0.048,0.001 2.3934,-3.99294 5.2123,-8.87585 2.8189,-4.88291 5.1697,-8.87802 5.2241,-8.87802 0.054,0 2.405,3.99511 5.2235,8.87802 2.8186,4.88291 5.1554,8.87801 5.1929,8.87801 0.099,0 0,0.16681 5.3316,-9.07887 2.6881,-4.66197 4.9415,-8.53957 5.0076,-8.6169 0.1134,-0.13255 0.7105,-0.1406 10.4273,-0.1406 5.6689,0 10.3259,0.0306 10.349,0.0679 0.023,0.0374 -2.2016,3.95114 -4.9438,8.69725 -2.7422,4.7461 -5.0633,8.79198 -5.1581,8.99083 -0.095,0.19885 -2.4531,4.3205 -5.2409,9.15922 -22.9613,39.85326 -26.0517,45.19241 -26.1728,45.21762 -0.073,0.0153 -0.2916,-0.2784 -0.5971,-0.80344 z"
       style="fill:#1b806a;fill-opacity:1;stroke-width:0.08034404" />
    <path
       inkscape:connector-curvature="0"
       id="path4881"
       d="m 887.73658,525.32221 c -2.8857,-5.00443 -7.5787,-13.1483 -10.4291,-18.09749 -2.8503,-4.9492 -7.4944,-13.00783 -10.3201,-17.90808 -3.9539,-6.85655 -5.1306,-8.95782 -5.1068,-9.11905 0.031,-0.2098 9.9409,-17.45731 10.161,-17.68433 0.1036,-0.10688 0.1303,-0.10234 0.2359,0.0402 0.065,0.0884 2.4002,4.1123 5.1883,8.94205 3.6552,6.33208 5.104,8.77464 5.1942,8.75727 0.071,-0.0136 2.3368,-3.85159 5.2085,-8.82153 2.796,-4.8386 5.0983,-8.8336 5.1165,-8.87779 0.02,-0.0492 0.074,-0.0413 0.1398,0.0204 0.059,0.0554 2.3874,4.05053 5.1747,8.87801 3.6391,6.30243 5.1072,8.77724 5.2067,8.77724 0.1,0 1.5835,-2.5024 5.2644,-8.87801 3.0716,-5.32034 5.1721,-8.87802 5.2417,-8.87802 0.1444,0 10.2762,17.52062 10.2782,17.77371 0,0.0981 -2.3081,4.1836 -5.1309,9.07888 -2.8227,4.89528 -7.4746,12.96792 -10.3376,17.93921 -12.7057,22.06256 -15.6592,27.15629 -15.7461,27.15629 -0.051,0 -2.4537,-4.09454 -5.3393,-9.09897 z"
       style="fill:#6f7070;stroke-width:0.08034404" />
    <path
       inkscape:connector-curvature="0"
       id="path4879"
       d="m 892.93358,534.24968 c -0.2164,-0.34207 -9.9864,-17.28957 -10.2761,-17.82557 -0.1553,-0.28723 -2.5057,-4.37273 -5.2231,-9.07888 -2.7175,-4.70615 -5.0237,-8.71933 -5.1248,-8.91819 -0.1012,-0.19885 -2.4768,-4.33251 -5.2791,-9.1859 -2.8023,-4.8534 -5.0839,-8.88738 -5.0703,-8.9644 0.043,-0.24479 10.1446,-17.68149 10.2286,-17.65641 0.044,0.0132 2.3764,3.99867 5.1827,8.85658 3.8322,6.6339 5.1422,8.83822 5.2625,8.85531 0.1347,0.0191 0.972,-1.38343 5.2686,-8.82553 2.8097,-4.86656 5.1347,-8.85384 5.1668,-8.8606 0.032,-0.007 2.3606,3.97515 5.1745,8.84871 4.3,7.44742 5.1417,8.85733 5.2759,8.83784 0.1196,-0.0174 1.4417,-2.24724 5.2636,-8.87776 2.8072,-4.87002 5.1401,-8.85521 5.1843,-8.85598 0.087,-0.002 10.1877,17.45673 10.2281,17.67815 0.013,0.0736 -2.2067,3.99765 -4.9336,8.7201 -2.7269,4.72246 -5.1554,8.94783 -5.3967,9.38972 -0.2413,0.44189 -2.6003,4.54716 -5.2422,9.12281 -2.6419,4.57565 -4.9197,8.5346 -5.0617,8.79767 -0.5084,0.94176 -10.3106,17.91524 -10.4081,18.02267 -0.083,0.0914 -0.1197,0.0779 -0.2199,-0.0803 z"
       style="fill:#18725f;fill-opacity:1;stroke-width:0.08034404" />
    <path
       inkscape:connector-curvature="0"
       id="path4877"
       d="m 892.93328,534.16933 c -0.327,-0.5154 -10.0429,-17.39624 -10.2596,-17.82557 -0.1379,-0.27315 -2.4667,-4.33481 -5.175,-9.0259 -5.2526,-9.09799 -5.2118,-9.02597 -5.1658,-9.11412 0.017,-0.0318 2.3196,-4.02744 5.1178,-8.87911 3.5903,-6.22501 5.1235,-8.81428 5.2095,-8.79767 0.067,0.0129 2.3543,3.8921 5.0827,8.62035 2.7283,4.72824 5.039,8.71848 5.1347,8.86719 0.1324,0.20574 0.1964,0.24801 0.2677,0.17683 0.052,-0.0515 2.3733,-4.04168 5.1595,-8.86719 3.5594,-6.16436 5.1062,-8.77365 5.2012,-8.77365 0.1207,0 2.3529,3.81332 9.7666,16.68438 l 0.586,1.01729 -0.1305,0.25242 c -0.072,0.13882 -2.3473,4.09193 -5.0567,8.78468 -2.7094,4.69274 -5.0258,8.73112 -5.1475,8.97416 -0.3024,0.6035 -10.2454,17.84893 -10.3703,17.98626 -0.083,0.0914 -0.1198,0.078 -0.2203,-0.0803 z"
       style="fill:#0f5957;fill-opacity:1;stroke-width:0.08034404" />
    <path
       inkscape:connector-curvature="0"
       id="path4875"
       d="m 892.89748,534.00526 c -0.088,-0.14685 -2.4091,-4.16368 -5.1569,-8.92629 -3.2962,-5.71318 -4.9802,-8.70636 -4.9496,-8.79767 0.095,-0.28289 10.2098,-17.71954 10.2831,-17.72649 0.072,-0.007 10.3279,17.67953 10.3282,17.81167 10e-5,0.0681 -10.1796,17.73051 -10.2819,17.83964 -0.034,0.0364 -0.1344,-0.054 -0.2229,-0.20086 z"
       style="fill:#0b403e;fill-opacity:1;stroke-width:0.08034404" />
  </g>
</svg>
