<?xml version="1.0" encoding="UTF-8" standalone="no"?>
<svg
   xmlns:dc="http://purl.org/dc/elements/1.1/"
   xmlns:cc="http://creativecommons.org/ns#"
   xmlns:rdf="http://www.w3.org/1999/02/22-rdf-syntax-ns#"
   xmlns:svg="http://www.w3.org/2000/svg"
   xmlns="http://www.w3.org/2000/svg"
   xmlns:sodipodi="http://sodipodi.sourceforge.net/DTD/sodipodi-0.dtd"
   xmlns:inkscape="http://www.inkscape.org/namespaces/inkscape"
   id="Layer_1"
   viewBox="0 0 452.48307 586.51668"
   version="1.1"
   sodipodi:docname="code.svg"
   inkscape:version="0.92.4 (5da689c313, 2019-01-14)"
   width="452.48306"
   height="586.51666">
  <metadata
     id="metadata193">
    <rdf:RDF>
      <cc:Work
         rdf:about="">
        <dc:format>image/svg+xml</dc:format>
        <dc:type
           rdf:resource="http://purl.org/dc/dcmitype/StillImage" />
        <dc:title></dc:title>
      </cc:Work>
    </rdf:RDF>
  </metadata>
  <sodipodi:namedview
     pagecolor="#ffffff"
     bordercolor="#666666"
     borderopacity="1"
     objecttolerance="10"
     gridtolerance="10"
     guidetolerance="10"
     inkscape:pageopacity="0"
     inkscape:pageshadow="2"
     inkscape:window-width="1920"
     inkscape:window-height="991"
     id="namedview191"
     showgrid="false"
     inkscape:zoom="0.76640801"
     inkscape:cx="229.55134"
     inkscape:cy="-1021.136"
     inkscape:window-x="-9"
     inkscape:window-y="-9"
     inkscape:window-maximized="1"
     inkscape:current-layer="Layer_1"
     fit-margin-top="0"
     fit-margin-left="0"
     fit-margin-right="0"
     fit-margin-bottom="0" />
  <defs
     id="defs4">
    <style
       id="style2">.cls-1{letter-spacing:-.02em;}.cls-2,.cls-3{fill:#fff;}.cls-2,.cls-4,.cls-5,.cls-6,.cls-7{stroke-miterlimit:10;}.cls-2,.cls-5,.cls-7{stroke-width:5px;}.cls-2,.cls-6,.cls-7{stroke:#022341;}.cls-8{letter-spacing:-.04em;}.cls-9{letter-spacing:0em;}.cls-10{letter-spacing:-.02em;}.cls-11{letter-spacing:-.02em;}.cls-12{letter-spacing:-.04em;}.cls-13{letter-spacing:-.02em;}.cls-14{letter-spacing:-.03em;}.cls-15{letter-spacing:-.02em;}.cls-16{letter-spacing:-.02em;}.cls-17{letter-spacing:-.02em;}.cls-18{fill:#043b4d;}.cls-19{fill:#3ee680;}.cls-20{fill:#18725f;}.cls-21,.cls-5{fill:#6cf1c7;}.cls-22{fill:#39e180;}.cls-23{letter-spacing:-.01em;}.cls-24{letter-spacing:-.01em;}.cls-25{letter-spacing:-.03em;}.cls-4{stroke:#fff;stroke-width:4.63px;}.cls-4,.cls-5,.cls-6,.cls-7{stroke-linecap:round;}.cls-4,.cls-6,.cls-7{fill:none;}.cls-26{letter-spacing:-.01em;}.cls-27{letter-spacing:-.02em;}.cls-28{letter-spacing:-.02em;}.cls-29{letter-spacing:-.01em;}.cls-30{letter-spacing:-.03em;}.cls-5{stroke:#18725f;}.cls-31{letter-spacing:-.01em;}.cls-32{letter-spacing:-.03em;}.cls-33{letter-spacing:-.02em;}.cls-6{stroke-width:4.82px;}.cls-34{letter-spacing:-.03em;}.cls-35{letter-spacing:-.03em;}.cls-36{letter-spacing:-.02em;}.cls-37{letter-spacing:-.01em;}.cls-38{letter-spacing:-.03em;}.cls-39{font-size:46.77px;}.cls-39,.cls-40{fill:#080444;font-family:Mont-Bold, Mont;}.cls-41{letter-spacing:-.02em;}.cls-42{letter-spacing:-.02em;}.cls-43{letter-spacing:-.02em;}.cls-44{letter-spacing:-.02em;}.cls-45{letter-spacing:-.02em;}.cls-46{letter-spacing:-.02em;}.cls-47{letter-spacing:-.02em;}.cls-48{letter-spacing:-.02em;}.cls-49{letter-spacing:-.02em;}.cls-40{font-size:68px;}.cls-50{letter-spacing:-.02em;}.cls-51{letter-spacing:-.02em;}.cls-52{letter-spacing:-.02em;}.cls-53{letter-spacing:-.03em;}.cls-54{letter-spacing:0em;}.cls-55{letter-spacing:-.01em;}</style>
  </defs>
  <path
     style="fill:#043b4d"
     inkscape:connector-curvature="0"
     class="cls-18"
     d="m 0,0.01 v 379.44 c 0,27.76 22.58,50.33 50.33,50.33 27.75,0 50.33,-22.58 50.33,-50.33 V 89.06 c 0,-4.28 3.47,-7.75 7.74,-7.75 H 274.89 V 0 H 0 Z"
     id="path8" />
  <line
     style="fill:#6cf1c7;stroke:#18725f;stroke-width:5px;stroke-linecap:round;stroke-miterlimit:10"
     class="cls-5"
     x1="36.970001"
     y1="97.370018"
     x2="242.03"
     y2="97.370018"
     id="line12" />
  <line
     style="fill:#6cf1c7;stroke:#18725f;stroke-width:5px;stroke-linecap:round;stroke-miterlimit:10"
     class="cls-5"
     x1="36.970001"
     y1="136.31001"
     x2="242.03"
     y2="136.31001"
     id="line14" />
  <line
     style="fill:#6cf1c7;stroke:#18725f;stroke-width:5px;stroke-linecap:round;stroke-miterlimit:10"
     class="cls-5"
     x1="36.970001"
     y1="292.07004"
     x2="242.03"
     y2="292.07004"
     id="line16" />
  <line
     style="fill:#6cf1c7;stroke:#18725f;stroke-width:5px;stroke-linecap:round;stroke-miterlimit:10"
     class="cls-5"
     x1="36.970001"
     y1="331.00998"
     x2="242.03"
     y2="331.00998"
     id="line18" />
  <line
     style="fill:#6cf1c7;stroke:#18725f;stroke-width:5px;stroke-linecap:round;stroke-miterlimit:10"
     class="cls-5"
     x1="36.970001"
     y1="175.25002"
     x2="242.03"
     y2="175.25002"
     id="line142" />
  <line
     style="fill:#6cf1c7;stroke:#18725f;stroke-width:5px;stroke-linecap:round;stroke-miterlimit:10"
     class="cls-5"
     x1="36.970001"
     y1="214.19002"
     x2="242.03"
     y2="214.19002"
     id="line144" />
  <line
     style="fill:#6cf1c7;stroke:#18725f;stroke-width:5px;stroke-linecap:round;stroke-miterlimit:10"
     class="cls-5"
     x1="36.970001"
     y1="253.13002"
     x2="242.03"
     y2="253.13002"
     id="line146" />
  <path
     style="fill:#39e180"
     inkscape:connector-curvature="0"
     class="cls-22"
     d="m 107.71,81.77 c -3.78,0 -7.14,2.77 -7.48,6.53 -0.02,0.23 -0.03,0.46 -0.03,0.7 v 290.39 c 0,27.74 -22.55,50.3 -50.28,50.33 v 0.05 h 292.67 c 32.51,0 58.87,-26.36 58.87,-58.87 V 89.34 c 0,-4.18 -3.39,-7.57 -7.57,-7.57 z"
     id="path148" />
  <g
     id="g158"
     transform="matrix(0.59382708,0,0,0.59382708,-195.65545,-64.950272)">
    <path
       style="fill:#18725f"
       inkscape:connector-curvature="0"
       class="cls-20"
       d="m 775.83,864.42 h 3.16 c 7.7,0 13.95,6.25 13.95,13.95 v 150.57 H 761.88 V 878.37 c 0,-7.7 6.25,-13.95 13.95,-13.95 z"
       transform="rotate(140.74,777.3884,946.70557)"
       id="path150" />
    <path
       style="fill:#043b4d"
       inkscape:connector-curvature="0"
       class="cls-18"
       d="m 812.15,891.11 h 6.43 c 10.3,0 18.66,8.36 18.66,18.66 v 187.22 H 793.49 V 909.77 c 0,-10.3 8.36,-18.66 18.66,-18.66 z"
       transform="rotate(140.75,815.40028,994.00102)"
       id="path152" />
    <rect
       style="fill:#6cf1c7"
       class="cls-21"
       x="725.72998"
       y="909.76001"
       width="47.810001"
       height="4.71"
       rx="2.3599999"
       ry="2.3599999"
       transform="rotate(140.75,749.66478,912.06808)"
       id="rect154" />
    <circle
       style="fill:#ffffff;stroke:#022341;stroke-width:5px;stroke-miterlimit:10"
       class="cls-2"
       cx="650.40997"
       cy="788.20001"
       r="121.61"
       id="circle156" />
  </g>
  <path
     style="fill:#39e180;stroke-width:0.59382707"
     inkscape:connector-curvature="0"
     class="cls-22"
     d="m 287.97515,581.27015 c -5.51667,-7.3219 2.94537,-8.07605 2.94537,-8.07605 0,0 -16.58559,3.53921 -19.23999,-7.38127 -1.94181,-7.99886 21.38371,-10.46323 21.38371,-10.46323 0,0 -29.1094,12.53569 -32.73769,-3.95489 -2.01306,-9.16275 23.23646,-11.72809 23.23646,-11.72809 0,0 -39.3351,11.00956 -42.93369,-3.81829 -3.15323,-12.98105 16.1996,-18.65804 49.24607,-28.43838 -0.57007,-3.23635 -36.49661,-33.17711 -30.7068,-42.67835 1.49051,-2.44656 7.94541,-1.15796 14.7091,1.26485 22.03692,7.89196 20.71862,8.57487 48.45629,18.78276 29.08566,10.7067 130.14909,-29.24598 130.14909,-29.24598 0,0 -16.82906,47.09642 -31.9301,67.5122 -16.45494,22.25662 -54.64989,53.76508 -82.73198,59.36486 -25.82554,5.14848 -44.32325,6.18174 -49.83991,-1.14014 z"
     id="path160" />
  <line
     style="fill:none;stroke:#022341;stroke-width:2.86224675px;stroke-linecap:round;stroke-miterlimit:10"
     class="cls-6"
     x1="264.35861"
     y1="543.82349"
     x2="296.41342"
     y2="537.75452"
     id="line162" />
  <line
     style="fill:none;stroke:#022341;stroke-width:2.86224675px;stroke-linecap:round;stroke-miterlimit:10"
     class="cls-6"
     x1="272.85031"
     y1="560.40906"
     x2="298.88962"
     y2="557.02423"
     id="line164" />
  <path
     style="fill:none;stroke:#022341;stroke-width:2.86224675px;stroke-linecap:round;stroke-miterlimit:10"
     inkscape:connector-curvature="0"
     class="cls-6"
     d="m 263.50353,515.57508 c 0,0 16.9597,-5.55822 25.71272,-7.90384 8.75301,-2.33968 20.25543,-4.06177 20.25543,-4.06177"
     id="path166" />
  <line
     style="fill:none;stroke:#022341;stroke-width:2.86224675px;stroke-linecap:round;stroke-miterlimit:10"
     class="cls-6"
     x1="284.21024"
     y1="573.84143"
     x2="297.65445"
     y2="573.15265"
     id="line168" />
  <text
     xml:space="preserve"
     style="font-style:normal;font-variant:normal;font-weight:bold;font-stretch:normal;font-size:96.75131226px;line-height:75.58696747px;font-family:monospace;-inkscape-font-specification:'monospace Bold';font-variant-ligatures:normal;font-variant-caps:normal;font-variant-numeric:normal;font-feature-settings:normal;text-align:start;letter-spacing:0px;word-spacing:0px;writing-mode:lr-tb;text-anchor:start;fill:#043b4d;fill-opacity:1;stroke:none;stroke-width:3.02347851"
     x="164.99905"
     y="249.38918"
     id="text1010"><tspan
       sodipodi:role="line"
       id="tspan1008"
       x="164.99905"
       y="249.38918"
       style="font-style:normal;font-variant:normal;font-weight:bold;font-stretch:normal;font-family:monospace;-inkscape-font-specification:'monospace Bold';fill:#043b4d;fill-opacity:1;stroke-width:3.02347851">&lt;--</tspan><tspan
       sodipodi:role="line"
       x="164.99905"
       y="324.97614"
       style="font-style:normal;font-variant:normal;font-weight:bold;font-stretch:normal;font-family:monospace;-inkscape-font-specification:'monospace Bold';fill:#043b4d;fill-opacity:1;stroke-width:3.02347851"
       id="tspan1012">===</tspan></text>
</svg>
