<?xml version="1.0" encoding="UTF-8" standalone="no"?>
<svg
   xmlns:dc="http://purl.org/dc/elements/1.1/"
   xmlns:cc="http://creativecommons.org/ns#"
   xmlns:rdf="http://www.w3.org/1999/02/22-rdf-syntax-ns#"
   xmlns:svg="http://www.w3.org/2000/svg"
   xmlns="http://www.w3.org/2000/svg"
   xmlns:xlink="http://www.w3.org/1999/xlink"
   xmlns:sodipodi="http://sodipodi.sourceforge.net/DTD/sodipodi-0.dtd"
   xmlns:inkscape="http://www.inkscape.org/namespaces/inkscape"
   id="Layer_1"
   viewBox="0 0 946.26387 208.65138"
   version="1.1"
   sodipodi:docname="logo.svg"
   inkscape:version="0.92.4 (5da689c313, 2019-01-14)"
   width="946.26385"
   height="208.65138">
  <metadata
     id="metadata179">
    <rdf:RDF>
      <cc:Work
         rdf:about="">
        <dc:format>image/svg+xml</dc:format>
        <dc:type
           rdf:resource="http://purl.org/dc/dcmitype/StillImage" />
        <dc:title></dc:title>
      </cc:Work>
    </rdf:RDF>
  </metadata>
  <sodipodi:namedview
     pagecolor="#ffffff"
     bordercolor="#666666"
     borderopacity="1"
     objecttolerance="10"
     gridtolerance="10"
     guidetolerance="10"
     inkscape:pageopacity="0"
     inkscape:pageshadow="2"
     inkscape:window-width="1920"
     inkscape:window-height="1009"
     id="namedview177"
     showgrid="false"
     inkscape:zoom="0.19179195"
     inkscape:cx="326.30481"
     inkscape:cy="-273.50034"
     inkscape:window-x="-8"
     inkscape:window-y="-8"
     inkscape:window-maximized="1"
     inkscape:current-layer="Layer_1"
     fit-margin-top="0"
     fit-margin-left="0"
     fit-margin-right="0"
     fit-margin-bottom="0" />
  <defs
     id="defs10">
    <style
       id="style2">.cls-1{fill:url(#linear-gradient);}.cls-2{fill:#022341;}.cls-3,.cls-4{fill:#fff;}.cls-5{fill:#31dd74;}.cls-6{fill:#3ee680;}.cls-7{fill:#080444;}.cls-8{fill:#39e180;}.cls-9{fill:#6cf1c7;}.cls-9,.cls-4{stroke:#022341;stroke-linecap:round;stroke-miterlimit:10;stroke-width:4.63px;}.cls-10{fill:url(#linear-gradient-2);}</style>
    <linearGradient
       id="linear-gradient"
       x1="404.14001"
       y1="898.65002"
       x2="905.32001"
       y2="898.65002"
       gradientUnits="userSpaceOnUse">
      <stop
         offset="0"
         stop-color="#18725f"
         id="stop4" />
      <stop
         offset="1"
         stop-color="#043b4d"
         id="stop6" />
    </linearGradient>
    <linearGradient
       id="linear-gradient-2"
       x1="223.14999"
       y1="1038.95"
       x2="836.19"
       y2="1038.95"
       xlink:href="#linear-gradient" />
  </defs>
  <g
     id="g841">
    <path
       style="fill:#3ee680;stroke-width:2.20982194"
       inkscape:connector-curvature="0"
       id="path16-6"
       d="m 200.14358,23.84398 c 0,0 -42.71586,-23.5567 -88.85694,-23.5567 L 46.47255,76.87971 c 0,0 14.65112,9.45804 27.91006,9.45804 23.26942,0 46.71564,-36.94823 46.71564,-36.94823 l 73.96274,62.51587 c 0,0 8.99398,-24.37434 8.99398,-47.77636 0,-24.70581 -3.93348,-40.26295 -3.93348,-40.26295 z"
       class="cls-6" />
    <path
       style="fill:#3ee680;stroke-width:2.20982194"
       inkscape:connector-curvature="0"
       id="path18-2"
       d="m 119.10941,106.15985 c -1.54687,-1.3259 -1.70156,-3.64621 -0.39777,-5.19308 1.3038,-1.54688 3.64621,-1.70157 5.19308,-0.39777 l 53.94176,46.40626 c 5.67924,-8.37522 10.65134,-17.61228 14.51853,-27.75536 L 121.91588,59.00225 c 0,0 -4.08817,5.30357 -13.17053,15.86652 C 95.24333,90.5806 73.38819,105.05494 35.60023,78.31609 L 101.8728,0 C 43.93126,0 2.93906,24.30804 2.93906,24.30804 2.93906,24.30804 0,35.84331 0,66.02948 c 0,101.62971 102.11588,142.62191 102.11588,142.62191 6.62947,-3.00536 14.49643,-7.04933 22.87166,-12.26451 L 77.12279,155.2179 c -1.54688,-1.3259 -1.72367,-3.64621 -0.39777,-5.19309 1.32589,-1.54687 3.6462,-1.70156 5.19308,-0.39776 l 49.50002,42.58327 c 6.62947,-4.46384 13.45782,-9.63483 20.10938,-15.53505 L 97.76252,130.4016 c -1.54687,-1.3259 -1.70156,-3.64621 -0.39776,-5.19309 1.32589,-1.54687 3.64621,-1.70156 5.19308,-0.39776 l 54.40582,46.80403 c 5.83393,-5.63505 11.44688,-11.84465 16.59576,-18.6951 l -54.45001,-46.84822 z"
       class="cls-6" />
  </g>
  <g
     aria-label="Electisec"
     style="font-style:normal;font-variant:normal;font-weight:bold;font-stretch:normal;font-size:149.23175049px;line-height:116.58731842px;font-family:'Space Grotesk';-inkscape-font-specification:'Space Grotesk, Bold';font-variant-ligatures:normal;font-variant-caps:normal;font-variant-numeric:normal;font-feature-settings:normal;text-align:start;letter-spacing:0px;word-spacing:0px;writing-mode:lr-tb;text-anchor:start;fill:#080444;fill-opacity:1;stroke:none;stroke-width:4.6634922"
     id="text837">
    <path
       d="M 309.45467,156.55681 V 52.094583 h 67.15429 v 17.90781 h -47.4557 v 24.921703 h 43.27721 V 112.83191 H 329.15326 V 138.649 h 48.35109 v 17.90781 z"
       style="stroke-width:4.6634922"
       id="path840" />
    <path
       d="M 392.82858,156.55681 V 52.094583 h 18.80321 V 156.55681 Z"
       style="stroke-width:4.6634922"
       id="path842" />
    <path
       d="m 466.19465,158.64605 q -11.04315,0 -19.54936,-4.62618 -8.35698,-4.77542 -13.1324,-13.28163 -4.62618,-8.65544 -4.62618,-20.29552 v -1.79078 q 0,-11.64007 4.62618,-20.146282 4.62619,-8.655442 12.98317,-13.281626 8.35697,-4.775416 19.40012,-4.775416 10.89392,0 18.95244,4.924647 8.05851,4.775417 12.53546,13.430858 4.47696,8.506209 4.47696,19.847819 v 6.41697 h -53.87267 q 0.29847,7.61082 5.67081,12.38623 5.37234,4.77542 13.13239,4.77542 7.90929,0 11.64008,-3.43233 3.73079,-3.43233 5.67081,-7.61082 l 15.37087,8.05852 q -2.08925,3.88002 -6.1185,8.50621 -3.88003,4.47695 -10.44623,7.76005 -6.56619,3.13386 -16.71395,3.13386 z m -18.05704,-47.60493 h 34.62176 q -0.59693,-6.41696 -5.22311,-10.29699 -4.47695,-3.880022 -11.78931,-3.880022 -7.61082,0 -12.08777,3.880022 -4.47695,3.88003 -5.52157,10.29699 z"
       style="stroke-width:4.6634922"
       id="path844" />
    <path
       d="m 553.22241,158.64605 q -10.74469,0 -19.54936,-4.47695 -8.65544,-4.47695 -13.72932,-12.98316 -5.07388,-8.50621 -5.07388,-20.59398 v -2.08925 q 0,-12.08777 5.07388,-20.593979 5.07388,-8.50621 13.72932,-12.983163 8.80467,-4.476952 19.54936,-4.476952 10.59545,0 18.20627,3.730793 7.61082,3.730794 12.23701,10.296991 4.77541,6.41697 6.26773,14.62471 l -18.20627,3.88003 q -0.59693,-4.47696 -2.68618,-8.05852 -2.08924,-3.58156 -5.96927,-5.670804 -3.73079,-2.089244 -9.4016,-2.089244 -5.6708,0 -10.29699,2.53694 -4.47695,2.387708 -7.16312,7.312358 -2.53694,4.77541 -2.53694,11.78931 v 1.49231 q 0,7.0139 2.53694,11.93854 2.68617,4.77542 7.16312,7.31236 4.62619,2.38771 10.29699,2.38771 8.50621,0 12.83393,-4.32772 4.47696,-4.47696 5.67081,-11.64008 l 18.20627,4.32772 q -1.94001,7.90928 -6.71542,14.47548 -4.62619,6.41697 -12.23701,10.14776 -7.61082,3.73079 -18.20627,3.73079 z"
       style="stroke-width:4.6634922"
       id="path846" />
    <path
       d="m 631.03976,156.55681 q -7.31236,0 -11.93854,-4.47695 -4.47696,-4.62619 -4.47696,-12.23701 V 98.057962 H 596.11953 V 82.53786 h 18.50473 V 59.556171 h 18.80321 V 82.53786 h 20.29551 v 15.520102 h -20.29551 v 38.501788 q 0,4.47696 4.17848,4.47696 h 14.32625 v 15.5201 z"
       style="stroke-width:4.6634922"
       id="path848" />
    <path
       d="M 670.59783,156.55681 V 82.53786 h 18.8032 v 74.01895 z m 9.4016,-82.674391 q -5.07388,0 -8.65544,-3.283099 -3.43233,-3.283098 -3.43233,-8.655441 0,-5.372343 3.43233,-8.655442 3.58156,-3.283098 8.65544,-3.283098 5.22312,0 8.65545,3.283098 3.43233,3.283099 3.43233,8.655442 0,5.372343 -3.43233,8.655441 -3.43233,3.283099 -8.65545,3.283099 z"
       style="stroke-width:4.6634922"
       id="path850" />
    <path
       d="m 740.97925,158.64605 q -14.47548,0 -23.72784,-6.26773 -9.25237,-6.26773 -11.19239,-17.90781 l 17.31089,-4.47695 q 1.04462,5.22311 3.43233,8.20774 2.53694,2.98464 6.1185,4.32772 3.73079,1.19386 8.05851,1.19386 6.5662,0 9.70007,-2.23848 3.13386,-2.38771 3.13386,-5.82004 0,-3.43233 -2.98463,-5.22311 -2.98464,-1.94001 -9.55083,-3.13386 l -4.17849,-0.74616 q -7.76005,-1.49232 -14.17702,-4.02926 -6.41696,-2.68617 -10.29699,-7.31236 -3.88002,-4.62618 -3.88002,-11.93854 0,-11.043146 8.05851,-16.863184 8.05851,-5.96927 21.19091,-5.96927 12.38623,0 20.59398,5.521574 8.20775,5.521575 10.74469,14.47548 l -17.46012,5.37234 q -1.19385,-5.6708 -4.92465,-8.058511 -3.58156,-2.387708 -8.9539,-2.387708 -5.37234,0 -8.20775,1.940013 -2.8354,1.790781 -2.8354,5.073876 0,3.58157 2.98463,5.37235 2.98464,1.64155 8.05852,2.53694 l 4.17849,0.74615 q 8.35698,1.49232 15.0724,4.02926 6.86466,2.38771 10.74469,7.01389 4.02926,4.47696 4.02926,12.23701 0,11.64007 -8.50621,18.05704 -8.35698,6.26773 -22.534,6.26773 z"
       style="stroke-width:4.6634922"
       id="path852" />
    <path
       d="m 822.07738,158.64605 q -11.04315,0 -19.54936,-4.62618 -8.35697,-4.77542 -13.13239,-13.28163 -4.62618,-8.65544 -4.62618,-20.29552 v -1.79078 q 0,-11.64007 4.62618,-20.146282 4.62618,-8.655442 12.98316,-13.281626 8.35698,-4.775416 19.40013,-4.775416 10.89392,0 18.95243,4.924647 8.05852,4.775417 12.53547,13.430858 4.47695,8.506209 4.47695,19.847819 v 6.41697 h -53.87266 q 0.29846,7.61082 5.67081,12.38623 5.37234,4.77542 13.13239,4.77542 7.90928,0 11.64008,-3.43233 3.73079,-3.43233 5.6708,-7.61082 l 15.37087,8.05852 q -2.08924,3.88002 -6.1185,8.50621 -3.88002,4.47695 -10.44622,7.76005 -6.5662,3.13386 -16.71396,3.13386 z m -18.05704,-47.60493 h 34.62177 q -0.59693,-6.41696 -5.22311,-10.29699 -4.47696,-3.880022 -11.78931,-3.880022 -7.61082,0 -12.08777,3.880022 -4.47696,3.88003 -5.52158,10.29699 z"
       style="stroke-width:4.6634922"
       id="path854" />
    <path
       d="m 909.10513,158.64605 q -10.74469,0 -19.54936,-4.47695 -8.65544,-4.47695 -13.72932,-12.98316 -5.07388,-8.50621 -5.07388,-20.59398 v -2.08925 q 0,-12.08777 5.07388,-20.593979 5.07388,-8.50621 13.72932,-12.983163 8.80467,-4.476952 19.54936,-4.476952 10.59545,0 18.20627,3.730793 7.61082,3.730794 12.23701,10.296991 4.77541,6.41697 6.26773,14.62471 l -18.20627,3.88003 q -0.59693,-4.47696 -2.68618,-8.05852 -2.08924,-3.58156 -5.96927,-5.670804 -3.73079,-2.089244 -9.4016,-2.089244 -5.6708,0 -10.29699,2.53694 -4.47695,2.387708 -7.16312,7.312358 -2.53694,4.77541 -2.53694,11.78931 v 1.49231 q 0,7.0139 2.53694,11.93854 2.68617,4.77542 7.16312,7.31236 4.62619,2.38771 10.29699,2.38771 8.50621,0 12.83394,-4.32772 4.47695,-4.47696 5.6708,-11.64008 l 18.20628,4.32772 q -1.94002,7.90928 -6.71543,14.47548 -4.62619,6.41697 -12.23701,10.14776 -7.61082,3.73079 -18.20627,3.73079 z"
       style="stroke-width:4.6634922"
       id="path856" />
  </g>
</svg>
